dataset
version=1
nRows=11
nColumns=39
inDegrees=no
endheader
time	sternoclavicular_r2	sternoclavicular_r3	unrotscap_r3	unrotscap_r2	acromioclavicular_r2	acromioclavicular_r3	acromioclavicular_r1	unrothum_r1	unrothum_r3	unrothum_r2	elv_angle	shoulder_elv	shoulder1_r2	shoulder_rot	elbow_flexion	pro_sup	deviation	flexion	cmc_abduction	cmc_flexion	mp_flexion	ip_flexion	mcp2_flexion	mcp2_abduction	pm2_flexion	md2_flexion	mcp3_flexion	mcp3_abduction	pm3_flexion	md3_flexion	mcp4_flexion	mcp4_abduction	pm4_flexion	md4_flexion	mcp5_flexion	mcp5_abduction	pm5_flexion	md5_flexion
1.580000	-0.022542	-0.221660	0.063037	0.098075	0.071005	0.132517	0.006698	-0.011548	0.131831	0.107559	0.126677	0.027437	0.146525	0.146525	2.213500	1.218430	0.000000	0.000000	0.000000	0.000000	0.000000	0.000000	0.000000	0.000000	0.000000	0.000000	0.000000	0.000000	0.000000	0.000000	0.000000	0.000000	0.000000	0.000000	0.000000	0.000000	0.000000	0.000000
1.585000	-0.022679	-0.221536	0.062762	0.097751	0.070353	0.134086	0.008092	-0.009755	0.132944	0.106421	0.126256	0.027437	0.146525	0.146525	2.217454	1.218992	0.000000	0.000000	0.000000	0.000000	0.000000	0.000000	0.000000	0.000000	0.000000	0.000000	0.000000	0.000000	0.000000	0.000000	0.000000	0.000000	0.000000	0.000000	0.000000	0.000000	0.000000	0.000000
1.590000	-0.022813	-0.221424	0.062491	0.097434	0.069709	0.135648	0.009478	-0.007965	0.134049	0.105291	0.125841	0.027437	0.146525	0.146525	2.221347	1.219555	0.000000	0.000000	0.000000	0.000000	0.000000	0.000000	0.000000	0.000000	0.000000	0.000000	0.000000	0.000000	0.000000	0.000000	0.000000	0.000000	0.000000	0.000000	0.000000	0.000000	0.000000	0.000000
1.595000	-0.022945	-0.221324	0.062225	0.097123	0.069073	0.137200	0.010853	-0.006180	0.135145	0.104171	0.125430	0.027437	0.146525	0.146525	2.225182	1.220121	0.000000	0.000000	0.000000	0.000000	0.000000	0.000000	0.000000	0.000000	0.000000	0.000000	0.000000	0.000000	0.000000	0.000000	0.000000	0.000000	0.000000	0.000000	0.000000	0.000000	0.000000	0.000000
1.600000	-0.023075	-0.221234	0.061962	0.096819	0.068445	0.138742	0.012217	-0.004401	0.136230	0.103061	0.125024	0.027437	0.146525	0.146525	2.228960	1.220687	0.000000	0.000000	0.000000	0.000000	0.000000	0.000000	0.000000	0.000000	0.000000	0.000000	0.000000	0.000000	0.000000	0.000000	0.000000	0.000000	0.000000	0.000000	0.000000	0.000000	0.000000	0.000000
1.605000	-0.023202	-0.221155	0.061704	0.096521	0.067826	0.140273	0.013570	-0.002630	0.137304	0.101961	0.124623	0.027437	0.146525	0.146525	2.232685	1.221255	0.000000	0.000000	0.000000	0.000000	0.000000	0.000000	0.000000	0.000000	0.000000	0.000000	0.000000	0.000000	0.000000	0.000000	0.000000	0.000000	0.000000	0.000000	0.000000	0.000000	0.000000	0.000000
1.610000	-0.023327	-0.221087	0.061450	0.096229	0.067216	0.141791	0.014910	-0.000867	0.138366	0.100872	0.124227	0.027437	0.146525	0.146525	2.236359	1.221824	0.000000	0.000000	0.000000	0.000000	0.000000	0.000000	0.000000	0.000000	0.000000	0.000000	0.000000	0.000000	0.000000	0.000000	0.000000	0.000000	0.000000	0.000000	0.000000	0.000000	0.000000	0.000000
1.615000	-0.023449	-0.221028	0.061200	0.095944	0.066615	0.143294	0.016236	0.000887	0.139415	0.099796	0.123836	0.027437	0.146525	0.146525	2.239983	1.222393	0.000000	0.000000	0.000000	0.000000	0.000000	0.000000	0.000000	0.000000	0.000000	0.000000	0.000000	0.000000	0.000000	0.000000	0.000000	0.000000	0.000000	0.000000	0.000000	0.000000	0.000000	0.000000
1.620000	-0.023567	-0.220979	0.060954	0.095665	0.066024	0.144782	0.017549	0.002630	0.140450	0.098732	0.123451	0.027437	0.146525	0.146525	2.243560	1.222963	0.000000	0.000000	0.000000	0.000000	0.000000	0.000000	0.000000	0.000000	0.000000	0.000000	0.000000	0.000000	0.000000	0.000000	0.000000	0.000000	0.000000	0.000000	0.000000	0.000000	0.000000	0.000000
1.625000	-0.023683	-0.220940	0.060710	0.095393	0.065443	0.146253	0.018847	0.004361	0.141470	0.097681	0.123071	0.027437	0.146525	0.146525	2.247091	1.223533	0.000000	0.000000	0.000000	0.000000	0.000000	0.000000	0.000000	0.000000	0.000000	0.000000	0.000000	0.000000	0.000000	0.000000	0.000000	0.000000	0.000000	0.000000	0.000000	0.000000	0.000000	0.000000
1.630000	-0.023795	-0.220909	0.060470	0.095128	0.064873	0.147707	0.020131	0.006079	0.142474	0.096644	0.122697	0.027437	0.146525	0.146525	2.250580	1.224103	0.000000	0.000000	0.000000	0.000000	0.000000	0.000000	0.000000	0.000000	0.000000	0.000000	0.000000	0.000000	0.000000	0.000000	0.000000	0.000000	0.000000	0.000000	0.000000	0.000000	0.000000	0.000000
